<svg xmlns="http://www.w3.org/2000/svg" xmlns:xlink="http://www.w3.org/1999/xlink" zoomAndPan="magnify" preserveAspectRatio="xMidYMid meet" version="1.0" viewBox="33.3 148.46 308.39 78.07"><defs><g/><clipPath id="0f76a0aaea"><path d="M 36.300781 151.464844 L 338.550781 151.464844 L 338.550781 223.464844 L 36.300781 223.464844 Z M 36.300781 151.464844 " clip-rule="nonzero"/></clipPath><clipPath id="c2a0eb08ba"><path d="M 41.550781 151.464844 L 333.441406 151.464844 C 336.339844 151.464844 338.691406 153.816406 338.691406 156.714844 L 338.691406 218.285156 C 338.691406 221.183594 336.339844 223.535156 333.441406 223.535156 L 41.550781 223.535156 C 38.648438 223.535156 36.300781 221.183594 36.300781 218.285156 L 36.300781 156.714844 C 36.300781 153.816406 38.648438 151.464844 41.550781 151.464844 Z M 41.550781 151.464844 " clip-rule="nonzero"/></clipPath><clipPath id="3d31fc0dee"><path d="M 43.367188 158.238281 L 167.144531 158.238281 L 167.144531 216.761719 L 43.367188 216.761719 Z M 43.367188 158.238281 " clip-rule="nonzero"/></clipPath><clipPath id="9f90e6d8b2"><path d="M 48.617188 158.238281 L 161.894531 158.238281 C 163.285156 158.238281 164.621094 158.789062 165.605469 159.773438 C 166.589844 160.757812 167.144531 162.09375 167.144531 163.488281 L 167.144531 211.511719 C 167.144531 212.90625 166.589844 214.242188 165.605469 215.226562 C 164.621094 216.210938 163.285156 216.761719 161.894531 216.761719 L 48.617188 216.761719 C 47.226562 216.761719 45.890625 216.210938 44.90625 215.226562 C 43.921875 214.242188 43.367188 212.90625 43.367188 211.511719 L 43.367188 163.488281 C 43.367188 162.09375 43.921875 160.757812 44.90625 159.773438 C 45.890625 158.789062 47.226562 158.238281 48.617188 158.238281 Z M 48.617188 158.238281 " clip-rule="nonzero"/></clipPath></defs><g clip-path="url(#0f76a0aaea)"><g clip-path="url(#c2a0eb08ba)"><path stroke-linecap="butt" transform="matrix(0.75, 0, 0, 0.75, 36.299189, 151.465699)" fill="none" stroke-linejoin="miter" d="M 7.002123 -0.00114014 L 396.189649 -0.00114014 C 400.054232 -0.00114014 403.189649 3.134277 403.189649 6.99886 L 403.189649 89.092616 C 403.189649 92.957199 400.054232 96.092616 396.189649 96.092616 L 7.002123 96.092616 C 3.132331 96.092616 0.00212269 92.957199 0.00212269 89.092616 L 0.00212269 6.99886 C 0.00212269 3.134277 3.132331 -0.00114014 7.002123 -0.00114014 Z M 7.002123 -0.00114014 " stroke="#000000" stroke-width="6" stroke-opacity="1" stroke-miterlimit="4"/></g></g><g clip-path="url(#3d31fc0dee)"><g clip-path="url(#9f90e6d8b2)"><path fill="#000000" d="M 43.367188 158.238281 L 167.144531 158.238281 L 167.144531 216.761719 L 43.367188 216.761719 Z M 43.367188 158.238281 " fill-opacity="1" fill-rule="nonzero"/></g></g><g fill="#ffffff" fill-opacity="1"><g transform="translate(52.744808, 196.618259)"><g><path d="M 2.863281 0 L 15.109375 0 L 15.109375 -2.304688 L 5.335938 -2.304688 L 5.335938 -8.875 L 14.101562 -8.875 L 14.101562 -11.152344 L 5.335938 -11.152344 L 5.335938 -17.359375 L 14.800781 -17.359375 L 14.800781 -19.660156 L 2.863281 -19.660156 Z M 2.863281 0 "/></g></g></g><g fill="#ffffff" fill-opacity="1"><g transform="translate(71.810693, 196.618259)"><g><path d="M 7.613281 0 L 10.082031 0 L 10.082031 -17.300781 L 16.710938 -17.300781 L 16.710938 -19.660156 L 0.953125 -19.660156 L 0.953125 -17.300781 L 7.613281 -17.300781 Z M 7.613281 0 "/></g></g></g><g fill="#ffffff" fill-opacity="1"><g transform="translate(91.63468, 196.618259)"><g><path d="M 15.757812 0 L 18.230469 0 L 18.230469 -19.660156 L 15.757812 -19.660156 L 15.757812 -11.207031 L 5.335938 -11.207031 L 5.335938 -19.660156 L 2.863281 -19.660156 L 2.863281 0 L 5.335938 0 L 5.335938 -8.847656 L 15.757812 -8.847656 Z M 15.757812 0 "/></g></g></g><g fill="#ffffff" fill-opacity="1"><g transform="translate(114.85612, 196.618259)"><g><path d="M 0.476562 0 L 3.117188 0 L 4.914062 -4.464844 L 14.492188 -4.464844 L 16.347656 0 L 18.960938 0 L 10.871094 -19.660156 L 8.566406 -19.660156 Z M 5.871094 -6.769531 L 9.71875 -16.207031 L 13.566406 -6.769531 Z M 5.871094 -6.769531 "/></g></g></g><g fill="#ffffff" fill-opacity="1"><g transform="translate(136.420947, 196.618259)"><g><path d="M 2.863281 0 L 5.308594 0 L 5.308594 -15.390625 L 16.179688 0 L 18.480469 0 L 18.480469 -19.660156 L 16.066406 -19.660156 L 16.066406 -4.269531 L 5.195312 -19.660156 L 2.863281 -19.660156 Z M 2.863281 0 "/></g></g></g><g fill="#000000" fill-opacity="1"><g transform="translate(169.025727, 196.769512)"><g><path d="M 2.078125 0 L 7.75 0 L 7.75 -5.589844 L 9.886719 -5.589844 L 12.695312 0 L 19.128906 0 L 15.503906 -6.628906 C 17.582031 -7.78125 18.761719 -9.859375 18.761719 -12.609375 C 18.761719 -16.964844 15.8125 -19.660156 11.039062 -19.660156 L 2.078125 -19.660156 Z M 7.640625 -10.109375 L 7.640625 -15.027344 L 10.28125 -15.027344 C 12.078125 -15.027344 13.058594 -14.15625 13.058594 -12.582031 C 13.058594 -11.011719 12.078125 -10.109375 10.28125 -10.109375 Z M 7.640625 -10.109375 "/></g></g></g><g fill="#000000" fill-opacity="1"><g transform="translate(189.246938, 196.769512)"><g><path d="M 11.65625 0.421875 C 17.917969 0.421875 22.355469 -3.820312 22.355469 -9.832031 C 22.355469 -15.839844 17.917969 -20.082031 11.65625 -20.082031 C 5.394531 -20.082031 0.953125 -15.839844 0.953125 -9.832031 C 0.953125 -3.820312 5.394531 0.421875 11.65625 0.421875 Z M 6.710938 -9.832031 C 6.710938 -12.78125 8.761719 -14.828125 11.65625 -14.828125 C 14.578125 -14.828125 16.597656 -12.78125 16.597656 -9.832031 C 16.597656 -6.882812 14.578125 -4.832031 11.65625 -4.832031 C 8.761719 -4.832031 6.710938 -6.882812 6.710938 -9.832031 Z M 6.710938 -9.832031 "/></g></g></g><g fill="#000000" fill-opacity="1"><g transform="translate(212.585589, 196.769512)"><g><path d="M 2.078125 0 L 12.160156 0 C 16.148438 0 18.929688 -2.246094 18.929688 -5.476562 C 18.929688 -7.554688 17.808594 -9.242188 15.953125 -10.054688 C 17.46875 -10.925781 18.339844 -12.5 18.339844 -14.378906 C 18.339844 -17.609375 15.757812 -19.660156 11.65625 -19.660156 L 2.078125 -19.660156 Z M 7.640625 -4.214844 L 7.640625 -7.890625 L 11.066406 -7.890625 C 12.414062 -7.890625 13.171875 -7.21875 13.171875 -6.066406 C 13.171875 -4.886719 12.414062 -4.214844 11.066406 -4.214844 Z M 7.640625 -11.9375 L 7.640625 -15.476562 L 10.589844 -15.476562 C 11.910156 -15.476562 12.640625 -14.828125 12.640625 -13.707031 C 12.640625 -12.554688 11.910156 -11.9375 10.589844 -11.9375 Z M 7.640625 -11.9375 "/></g></g></g><g fill="#000000" fill-opacity="1"><g transform="translate(232.329356, 196.769512)"><g><path d="M 2.078125 0 L 15.867188 0 L 15.867188 -4.632812 L 7.695312 -4.632812 L 7.695312 -7.667969 L 14.800781 -7.667969 L 14.800781 -12.21875 L 7.695312 -12.21875 L 7.695312 -15.082031 L 15.558594 -15.082031 L 15.558594 -19.660156 L 2.078125 -19.660156 Z M 2.078125 0 "/></g></g></g><g fill="#000000" fill-opacity="1"><g transform="translate(249.461211, 196.769512)"><g><path d="M 2.078125 0 L 7.75 0 L 7.75 -5.589844 L 9.886719 -5.589844 L 12.695312 0 L 19.128906 0 L 15.503906 -6.628906 C 17.582031 -7.78125 18.761719 -9.859375 18.761719 -12.609375 C 18.761719 -16.964844 15.8125 -19.660156 11.039062 -19.660156 L 2.078125 -19.660156 Z M 7.640625 -10.109375 L 7.640625 -15.027344 L 10.28125 -15.027344 C 12.078125 -15.027344 13.058594 -14.15625 13.058594 -12.582031 C 13.058594 -11.011719 12.078125 -10.109375 10.28125 -10.109375 Z M 7.640625 -10.109375 "/></g></g></g><g fill="#000000" fill-opacity="1"><g transform="translate(269.682423, 196.769512)"><g><path d="M 9.128906 0.421875 C 14.015625 0.421875 16.90625 -1.882812 16.90625 -5.757812 C 16.90625 -9.015625 14.800781 -10.925781 10.027344 -11.992188 C 7.5 -12.554688 6.574219 -13.171875 6.574219 -14.183594 C 6.574219 -15.140625 7.414062 -15.730469 8.734375 -15.730469 C 10.308594 -15.730469 11.207031 -14.914062 11.207031 -13.425781 L 16.542969 -13.425781 C 16.542969 -17.46875 13.453125 -20.082031 8.621094 -20.082031 C 3.988281 -20.082031 1.125 -17.777344 1.125 -14.070312 C 1.125 -10.757812 3.285156 -8.707031 7.722656 -7.863281 C 10.109375 -7.386719 11.261719 -6.65625 11.261719 -5.53125 C 11.261719 -4.550781 10.421875 -3.988281 9.042969 -3.988281 C 7.414062 -3.988281 6.460938 -4.859375 6.460938 -6.375 L 0.984375 -6.375 C 0.984375 -2.132812 4.015625 0.421875 9.128906 0.421875 Z M 9.128906 0.421875 "/></g></g></g><g fill="#000000" fill-opacity="1"><g transform="translate(287.62875, 196.769512)"><g><path d="M 11.65625 0.421875 C 17.917969 0.421875 22.355469 -3.820312 22.355469 -9.832031 C 22.355469 -15.839844 17.917969 -20.082031 11.65625 -20.082031 C 5.394531 -20.082031 0.953125 -15.839844 0.953125 -9.832031 C 0.953125 -3.820312 5.394531 0.421875 11.65625 0.421875 Z M 6.710938 -9.832031 C 6.710938 -12.78125 8.761719 -14.828125 11.65625 -14.828125 C 14.578125 -14.828125 16.597656 -12.78125 16.597656 -9.832031 C 16.597656 -6.882812 14.578125 -4.832031 11.65625 -4.832031 C 8.761719 -4.832031 6.710938 -6.882812 6.710938 -9.832031 Z M 6.710938 -9.832031 "/></g></g></g><g fill="#000000" fill-opacity="1"><g transform="translate(310.9674, 196.769512)"><g><path d="M 2.078125 0 L 7.695312 0 L 7.695312 -10.027344 L 15.167969 0 L 19.773438 0 L 19.773438 -19.660156 L 14.183594 -19.660156 L 14.183594 -9.691406 L 6.710938 -19.660156 L 2.078125 -19.660156 Z M 2.078125 0 "/></g></g></g></svg>